<?xml version="1.0" encoding="UTF-8"?>
<svg width="1000px" height="1001px" viewBox="0 0 1000 1001" version="1.1" xmlns="http://www.w3.org/2000/svg" xmlns:xlink="http://www.w3.org/1999/xlink">
    <!-- Generator: Sketch 55.1 (78136) - https://sketchapp.com -->
    <title>编组 152</title>
    <desc>Created with Sketch.</desc>
    <g id="上传" stroke="none" stroke-width="1" fill="none" fill-rule="evenodd">
        <g id="4" transform="translate(-282.000000, -181.000000)">
            <g id="编组-152" transform="translate(282.000000, 182.000000)">
                <rect id="矩形备份-92" x="0" y="0" width="1000" height="1000"></rect>
                <g id="210" transform="translate(189.000000, 58.000000)" fill-rule="nonzero">
                    <g id="编组" transform="translate(379.000000, 551.000000)">
                        <polygon id="路径" fill="#55B2E5" points="95.6000554 220.08776 0.141629712 129.696698 51.2800721 46.1276023 131.396965 90.4703877 112.646203 174.039483"></polygon>
                        <polygon id="路径" fill="#56BFEB" points="320.609202 75.120962 322.313817 75.120962 364.929185 88.7648959 359.815341 175.744975 95.6000554 220.08776 99.0092849 131.40219 223.446161 76.8264537"></polygon>
                        <polygon id="路径" fill="#8AD6F7" points="247.310768 0.0793251974 364.929185 88.7648959 99.0092849 131.40219 3.5508592 35.8946518"></polygon>
                    </g>
                    <path d="M513.358664,449 C513.358664,449 533.831893,455.82782 554.305123,467.776506 C573.07225,479.725191 605.488196,503.622561 625.961426,515.571247 C646.434655,527.519932 666.907885,536.054707 673.732295,541.175573 C682.262807,546.296438 687.381114,554.831213 687.381114,563.365988 C687.381114,571.900763 694.205524,588.970314 694.205524,592.384224 C695.911626,595.798134 701.029934,606.039864 690.793319,609.453774 C682.262807,611.160729 673.732295,609.453774 675.438397,595.798134 C675.438397,595.798134 677.144499,594.091179 670.32009,590.677269 C665.201782,587.263359 651.552963,575.314673 651.552963,575.314673 C651.552963,575.314673 644.728553,571.900763 632.785836,570.193808 C619.137016,566.779898 581.602762,556.538168 564.541737,551.417303 C547.480713,546.296438 494.591537,539.468617 469,512.157337 L513.358664,449 Z" id="路径" fill="#FFD9CC"></path>
                    <path d="M231.360465,256 C231.360465,256 222.813953,242.222222 229.651163,235.333333 C236.488372,228.444444 248.453488,225 248.453488,225 L257,242.222222 L231.360465,256 Z" id="路径" fill="#313086"></path>
                    <g id="编组" transform="translate(204.000000, 0.000000)">
                        <path d="M185,303.447619 C185,303.447619 155.87963,358 150.740741,358 C147.314815,356.295238 83.9351852,318.790476 83.9351852,318.790476 L44.537037,272.761905 L25.6944444,250.6 C25.6944444,250.6 41.1111111,235.257143 42.8240741,228.438095 C44.537037,223.32381 37.6851852,202.866667 37.6851852,202.866667 C37.6851852,202.866667 37.6851852,202.866667 37.6851852,202.866667 C35.9722222,199.457143 8.56481481,119.333333 8.56481481,119.333333 C3.42592593,110.809524 61.6666667,49.4380952 61.6666667,49.4380952 L155.87963,69.8952381 L164.444444,102.285714 L164.444444,155.133333 C164.444444,155.133333 164.444444,160.247619 161.018519,177.295238 C159.305556,192.638095 147.314815,209.685714 147.314815,209.685714 C147.314815,209.685714 143.888889,235.257143 143.888889,243.780952 C143.888889,252.304762 140.462963,274.466667 140.462963,274.466667 L185,303.447619 Z" id="路径" fill="#FFD9CC"></path>
                        <path d="M147.314815,207.980952 C147.314815,209.685714 135.324074,238.666667 111.342593,242.07619 C87.3611111,245.485714 80.5092593,250.6 94.212963,254.009524 C107.916667,257.419048 116.481481,264.238095 89.0740741,267.647619 C77.0833333,269.352381 59.9537037,271.057143 44.537037,271.057143 L25.6944444,248.895238 C25.6944444,248.895238 41.1111111,233.552381 42.8240741,226.733333 C44.537037,221.619048 37.6851852,201.161905 37.6851852,201.161905 C37.6851852,202.866667 51.3888889,223.32381 78.7962963,230.142857 C107.916667,236.961905 135.324074,228.438095 147.314815,207.980952 Z" id="路径" fill="#FBC5B3"></path>
                        <ellipse id="椭圆形" fill="#FFD9CC" transform="translate(166.174830, 131.276537) rotate(3.915708) translate(-166.174830, -131.276537) " cx="166.17483" cy="131.276537" rx="10.2779072" ry="28.982602"></ellipse>
                        <ellipse id="椭圆形" fill="#FFD9CC" transform="translate(20.680431, 153.582341) rotate(-21.217278) translate(-20.680431, -153.582341) " cx="20.6804306" cy="153.582341" rx="10.2712809" ry="28.9987601"></ellipse>
                        <path d="M27.4074074,158.542857 C27.4074074,158.542857 17.1296296,119.333333 17.1296296,102.285714 C15.4166667,85.2380952 15.4166667,80.1238095 15.4166667,80.1238095 L3.42592593,112.514286 C3.42592593,112.514286 1.71296296,121.038095 6.85185185,129.561905 C13.7037037,126.152381 22.2685185,161.952381 22.2685185,161.952381 L27.4074074,158.542857 Z" id="路径" fill="#464489"></path>
                        <path d="M142.175926,63.0761905 C142.175926,63.0761905 154.166667,75.0095238 157.592593,90.352381 C159.305556,103.990476 161.018519,134.67619 161.018519,134.67619 C161.018519,134.67619 167.87037,126.152381 167.87037,114.219048 C166.157407,102.285714 164.444444,90.352381 164.444444,90.352381 L147.314815,59.6666667 L142.175926,63.0761905 Z" id="路径" fill="#464489"></path>
                        <path d="M11.9907407,97.1714286 L20.5555556,114.219048 C20.5555556,114.219048 23.9814815,121.038095 30.8333333,114.219048 C39.3981481,107.4 51.3888889,86.9428571 77.0833333,83.5333333 C101.064815,80.1238095 131.898148,92.0571429 140.462963,95.4666667 C149.027778,98.8761905 149.027778,95.4666667 150.740741,93.7619048 C150.740741,92.0571429 154.166667,76.7142857 154.166667,76.7142857 L154.166667,59.6666667 L17.1296296,42.6190476 L11.9907407,97.1714286 Z" id="路径" fill="#5A94F3"></path>
                        <path d="M3.42592593,112.514286 C3.42592593,112.514286 15.4166667,90.352381 32.5462963,76.7142857 C49.6759259,64.7809524 73.6574074,54.552381 102.777778,56.2571429 C131.898148,57.9619048 155.87963,71.6 164.444444,88.647619 C164.444444,88.647619 161.018519,63.0761905 152.453704,42.6190476 C143.888889,23.8666667 125.046296,6.81904762 104.490741,1.7047619 C83.9351852,-3.40952381 34.2592593,8.52380952 18.8425926,20.4571429 C-3.47721851e-13,37.5047619 -3.47721851e-13,73.3047619 3.42592593,112.514286 Z" id="路径" fill="#236CE4"></path>
                    </g>
                    <path d="M315.660066,287.877301 L329.310231,282.760736 L349.785479,332.220859 L353.19802,287.877301 L353.19802,264 C353.19802,264 382.20462,275.93865 390.735974,277.644172 C397.561056,279.349693 421.448845,286.171779 433.392739,304.932515 C445.336634,321.98773 477.755776,388.503067 484.580858,402.147239 C491.405941,415.791411 499.937294,429.435583 505.056106,436.257669 C510.174917,443.079755 517,444.785276 517,453.312883 C517,460.134969 503.349835,504.478528 464.105611,519.828221 L445.336634,507.889571 C445.336634,507.889571 440.217822,649.447853 440.217822,681.852761 C438.511551,714.257669 438.511551,792.711656 441.924092,820 L155.270627,820 C155.270627,820 150.151815,760.306748 155.270627,741.546012 C160.389439,722.785276 179.158416,596.576687 151.858086,518.122699 C151.858086,518.122699 124.557756,553.93865 116.026403,565.877301 C107.49505,577.815951 104.082508,588.04908 104.082508,588.04908 C104.082508,588.04908 87.019802,589.754601 69.9570957,591.460123 C52.8943894,593.165644 0,589.754601 0,591.460123 C0,591.460123 0,553.93865 10.2376238,528.355828 C18.7689769,502.773006 47.7755776,429.435583 58.0132013,407.263804 C66.5445545,385.092025 83.6072607,350.981595 98.9636964,335.631902 C114.320132,320.282209 167.214521,286.171779 185.983498,279.349693 C204.752475,272.527607 209.871287,267.411043 209.871287,267.411043 L271.29703,286.171779 L315.660066,287.877301 Z" id="路径" fill="#313086"></path>
                    <g id="编组" transform="translate(121.000000, 453.000000)">
                        <path d="M302.909091,166.141166 C302.909091,166.141166 302.909091,164.435935 302.909091,164.435935 C306.324242,157.615009 316.569697,147.383619 321.692424,143.973156 C321.692424,143.973156 323.4,142.267925 323.4,142.267925 C323.4,142.267925 323.4,140.562693 323.4,140.562693 L319.984848,137.15223 C319.984848,137.15223 319.984848,135.446998 319.984848,133.741767 C319.984848,133.741767 321.692424,133.741767 323.4,133.741767 L326.815152,137.15223 C328.522727,138.857461 328.522727,140.562693 328.522727,142.267925 C328.522727,143.973156 326.815152,145.678388 325.107576,147.383619 C318.277273,150.794082 309.739394,161.025472 308.031818,166.141166 C304.616667,166.141166 304.616667,166.141166 302.909091,166.141166 C302.909091,166.141166 302.909091,166.141166 302.909091,166.141166 Z" id="路径" fill="#FF7AA7"></path>
                        <g>
                            <path d="M115.075758,352.011407 L338.768182,191.71964 C342.183333,188.309177 343.890909,183.193482 340.475758,179.783019 L229.483333,4.1441681 C226.068182,-0.971526587 220.945455,-0.971526587 215.822727,2.43893654 L4.08333333,162.730703 C0.668181818,166.141166 -1.03939394,171.256861 2.37575758,174.667324 L103.122727,350.306175 C104.830303,353.716638 111.660606,355.42187 115.075758,352.011407 Z" id="路径" fill="#FFC941"></path>
                            <polygon id="路径" fill="#F3F3F3" points="330.230303 183.193482 115.075758 348.600943 16.0363636 183.193482 214.115152 16.080789"></polygon>
                            <path d="M284.125758,143.973156 C284.125758,143.973156 282.418182,143.973156 282.418182,143.973156 C279.00303,143.973156 277.295455,142.267925 275.587879,138.857461 L239.728788,77.4691252 C236.313636,72.3534305 238.021212,67.2377358 243.143939,63.8272727 L251.681818,58.711578 C253.389394,57.0063465 255.09697,57.0063465 256.804545,57.0063465 C258.512121,57.0063465 260.219697,58.711578 260.219697,60.4168096 L302.909091,128.626072 C304.616667,132.036535 302.909091,135.446998 301.201515,137.15223 L301.201515,137.15223 L292.663636,142.267925 C289.248485,143.973156 285.833333,143.973156 284.125758,143.973156 Z M253.389394,62.1220412 C253.389394,62.1220412 253.389394,62.1220412 253.389394,62.1220412 L244.851515,67.2377358 C243.143939,68.9429674 241.436364,72.3534305 243.143939,74.0586621 L279.00303,135.446998 C279.00303,137.15223 280.710606,137.15223 282.418182,138.857461 C284.125758,138.857461 285.833333,138.857461 287.540909,138.857461 L296.078788,133.741767 C296.078788,133.741767 297.786364,132.036535 296.078788,132.036535 L253.389394,62.1220412 C255.09697,62.1220412 255.09697,62.1220412 253.389394,62.1220412 C253.389394,62.1220412 253.389394,62.1220412 253.389394,62.1220412 Z" id="形状" fill="#464489"></path>
                        </g>
                        <g transform="translate(239.060606, 116.026587)">
                            <g id="路径">
                                <path d="M82.6318182,7.48379074 L26.2818182,63.7564322 C16.0363636,73.9878216 7.49848485,84.219211 0.668181818,96.1558319 L0.668181818,96.1558319 C12.6212121,89.3349057 24.5742424,80.8087479 33.1121212,70.5773585 L89.4621212,14.304717 L82.6318182,7.48379074 Z" fill="#FF7AA7"></path>
                                <path d="M89.4621212,12.5994854 L84.3393939,7.48379074 L86.0469697,5.77855918 C87.7545455,4.07332762 89.4621212,4.07332762 91.169697,5.77855918 L91.169697,5.77855918 C92.8772727,7.48379074 92.8772727,9.1890223 91.169697,10.8942539 L89.4621212,12.5994854 Z" fill="#313086"></path>
                            </g>
                            <polygon id="矩形" fill="#313086" transform="translate(32.425078, 64.376028) rotate(-45.000000) translate(-32.425078, -64.376028) " points="29.8619809 59.2551081 34.9811428 59.2586244 34.9881753 69.4969481 29.8690134 69.4934319"></polygon>
                        </g>
                    </g>
                    <path d="M247.764706,227.092347 C247.764706,227.092347 229,237.227727 229,242.295418 C229,247.363108 240.941176,254.120028 252.882353,259.187718 C263.117647,264.255408 316,287.904629 316,287.904629 C316,287.904629 275.058824,318.31077 269.941176,320 C269.941176,320 247.764706,311.55385 234.117647,299.729239 C220.470588,287.904629 200,269.323098 200,269.323098 C200,269.323098 210.235294,260.876948 213.647059,254.120028 C217.058824,247.363108 227.294118,225.403117 247.764706,227.092347 Z" id="路径" fill="#464489"></path>
                    <path d="M348.695652,255 C348.695652,255 370.73913,280.434783 374.130435,283.826087 C377.521739,287.217391 386,314.347826 386,314.347826 L372.434783,302.478261 C372.434783,302.478261 353.782609,326.217391 352.086957,333 C352.086957,333 355.478261,285.521739 347,273.652174 L348.695652,255 Z" id="路径" fill="#464489"></path>
                    <path d="M104.37293,587.70745 C104.37293,587.70745 133.414857,618.441557 141.956601,630.393709 C150.498344,642.345862 179.540271,669.665067 191.498712,676.494869 C203.457153,683.32467 229.082383,696.984273 235.915777,696.984273 C241.040823,696.984273 252.999264,691.861922 278.624494,696.984273 C285.457889,698.691723 292.291283,702.106624 297.416329,705.521524 C299.124678,707.228975 300.833027,708.936425 302.541375,708.936425 C307.666421,710.643876 321.333211,717.473677 323.041559,724.303478 L335,734.54818 C335,734.54818 335,744.792883 326.458257,744.792883 C326.458257,744.792883 333.291651,749.915234 331.583303,758.452485 C329.874954,768.697187 321.333211,766.989737 321.333211,766.989737 C321.333211,766.989737 321.333211,773.819538 316.208165,775.526989 C311.083119,778.941889 307.666421,778.941889 307.666421,778.941889 C307.666421,778.941889 300.833027,790.894042 285.457889,790.894042 C285.457889,790.894042 271.791099,802.846194 256.415961,797.723843 C256.415961,797.723843 241.040823,787.479141 234.207429,784.064241 C227.374034,780.64934 215.415593,760.159936 210.290547,756.745035 C205.165501,753.330134 198.332107,748.207783 194.915409,748.207783 C191.498712,746.500333 184.665317,741.377982 176.123574,734.54818 C169.290179,727.718379 94.1228379,696.984273 80.4560486,683.32467 C66.7892593,671.372517 34.3306346,640.638411 22.3721939,632.101159 C10.4137533,623.563908 -1.54468741,620.149007 0.163661261,608.196855 C0.163661261,596.244702 1.87200993,586 1.87200993,586 L104.37293,587.70745 Z" id="路径" fill="#FFD9CC"></path>
                    <path d="M4.38888889,557 C1,576.118146 1,593.498279 1,593.498279 C2.69444444,591.760266 55.2222222,595.236292 70.4722222,593.498279 C87.4166667,591.760266 104.361111,590.022252 104.361111,590.022252 C104.361111,590.022252 107.75,579.594173 116.222222,567.42808 C117.916667,565.690066 119.611111,562.21404 123,557 L4.38888889,557 Z" id="路径" fill="#313086"></path>
                    <path d="M326,747 C326,747 326,747 324.291667,747 C322.583333,747 320.875,747 317.458333,747 C315.75,747 314.041667,747 314.041667,745.25 C312.333333,745.25 310.625,743.5 310.625,743.5 C307.208333,741.75 305.5,740 302.083333,738.25 C300.375,736.5 298.666667,736.5 298.666667,734.75 C298.666667,734.75 296.958333,733 296.958333,733 C296.958333,733 295.25,731.25 295.25,731.25 C293.541667,729.5 293.541667,729.5 293.541667,727.75 C293.541667,727.75 291.833333,727.75 291.833333,726 C291.833333,726 291.833333,726 291.833333,726 C291.833333,726 291.833333,726 290.125,726 C288.416667,724.25 288.416667,724.25 286.708333,722.5 C286.708333,720.75 285,720.75 285,720.75 C285,719 285,719 285,719 C285,719 285,719 286.708333,720.75 C286.708333,720.75 288.416667,722.5 288.416667,722.5 C288.416667,722.5 290.125,724.25 290.125,724.25 C290.125,724.25 290.125,724.25 290.125,724.25 C290.125,724.25 290.125,724.25 291.833333,724.25 C291.833333,724.25 293.541667,724.25 293.541667,726 C295.25,726 296.958333,727.75 296.958333,729.5 C296.958333,729.5 298.666667,731.25 298.666667,731.25 C298.666667,731.25 300.375,733 300.375,733 C302.083333,734.75 302.083333,734.75 303.791667,736.5 C307.208333,738.25 308.916667,740 312.333333,741.75 C314.041667,741.75 314.041667,743.5 315.75,743.5 C317.458333,743.5 317.458333,745.25 319.166667,745.25 C320.875,747 322.583333,747 324.291667,747 C324.291667,747 326,747 326,747 Z" id="路径" fill="#FBC5B3"></path>
                    <path d="M332.9375,734.5 L332.9375,734.5 C332.9375,741.3 326.1375,743 326.1375,743 C326.1375,743 321.0375,739.6 319.3375,739.6 C317.6375,737.9 317.6375,736.2 319.3375,734.5 C321.0375,731.1 322.7375,726 322.7375,726 L332.9375,734.5 Z" id="路径" fill="#FFFFFF"></path>
                    <path d="M311.6,765.65 C308.133333,763.95 304.666667,763.95 301.2,763.95 C297.733333,763.95 296,763.95 296,763.95 C296,763.95 296,765.65 302.933333,767.35 C309.866667,767.35 318.533333,769.05 322,769.05 C322,767.35 322,767.35 322,767.35 C322,767.35 315.066667,767.35 311.6,765.65 Z" id="路径" fill="#FBC5B3"></path>
                    <path d="M308,778.8 C308,778.8 297.806721,780.5 294.408961,780.5 C289.312322,780.5 282.516803,782.2 285.914562,782.2 C289.312322,782.2 289.312322,782.2 296.107841,782.2 C299.505601,782.2 302.903361,782.2 306.30112,780.5 C308,778.8 308,778.8 308,778.8 L308,778.8 L308,778.8 Z" id="路径" fill="#FBC5B3"></path>
                    <path d="M285.008326,789.65 C285.008326,789.65 285.008326,791.35 285.008326,789.65 C281.608326,789.65 278.208326,791.35 274.808326,791.35 C271.408326,791.35 271.408326,791.35 273.108326,791.35 C274.808326,791.35 285.008326,789.65 285.008326,789.65 Z" id="路径" fill="#FBC5B3"></path>
                    <path d="M682.3375,594.25 C682.3375,594.25 682.3375,599.35 682.3375,601.05 C684.0375,602.75 690.8375,604.45 694.2375,602.75 C694.2375,602.75 695.9375,599.35 692.5375,595.95 C690.8375,594.25 684.0375,592.55 682.3375,594.25 Z" id="路径" fill="#FFFFFF"></path>
                </g>
            </g>
        </g>
    </g>
</svg>